# xmcd
#
# Track frame offsets: 
#        150
#        19750
#        36150
#        54167
#        73417
#        92127
#        107840
#        130210
#        149030
#        165190
#        184297
#        200117
#        214800
#        232700
#        250780
#        272067
#
# Disc length: 3766 seconds
#
# Revision: 6
# Processed by: cddbd v1.5.2PL0 Copyright (c) Steve Scherf et al.
# Submitted via: ExactAudioCopyFreeDBPlugin 1.0
#
DISCID=eb0eb410
DTITLE=Reflections - Zeit zum Träumen - Bandari Vol. 2
DYEAR=2000
DGENRE=Entspannung
TTITLE0=Pan´s Dream
TTITLE1=Moon Over Cairo
TTITLE2=Irish Greens
TTITLE3=Into Red Velvet
TTITLE4=Blue Venus
TTITLE5=Moment Of Good-Bye
TTITLE6=Autumn Wind
TTITLE7=A New Day
TTITLE8=Indian Summerrain
TTITLE9=Silence
TTITLE10=Peace Of Oa
TTITLE11=Melody Of Love
TTITLE12=Slow Motion
TTITLE13=The Deep Blue Sea
TTITLE14=Birds Of Paradise
TTITLE15=Rudi´s Theme
EXTD=YEAR: 2000
EXTT0=
EXTT1=
EXTT2=
EXTT3=
EXTT4=
EXTT5=
EXTT6=
EXTT7=
EXTT8=
EXTT9=
EXTT10=
EXTT11=
EXTT12=
EXTT13=
EXTT14=
EXTT15=
PLAYORDER=
